# xmcd
#
# Track frame offsets: 
#        150
#        21132
#        36060
#        56650
#        70395
#        86002
#        109685
#        129185
#        152597
#        168877
#        191397
#        205620
#
# Disc length: 2963 seconds
#
# Revision: 1
# Processed by: cddbd v1.5.2PL0 Copyright (c) Steve Scherf et al.
# Submitted via: ExactAudioCopyFreeDBPlugin 1.0
#
DISCID=910b910c
DTITLE=Gladys Knight - Gladys Knight and The Pips:  Collector's Edition
DYEAR=1997
DGENRE=Soul
TTITLE0=Midnight Train to Georgia
TTITLE1=I Feel a Song
TTITLE2=Make Yours a Happy Home
TTITLE3=The One and Only
TTITLE4=Come Back and Finish What You Started
TTITLE5=Home is Where the Heart Is
TTITLE6=On and On
TTITLE7=Money
TTITLE8=Don't Say No to Me Tonight
TTITLE9=Walk Softly
TTITLE10=I'll Miss You
TTITLE11=Once in a Lifetime Thing
EXTD=ID3G: 42
EXTT0=
EXTT1=
EXTT2=
EXTT3=
EXTT4=
EXTT5=
EXTT6=
EXTT7=
EXTT8=
EXTT9=
EXTT10=
EXTT11=
PLAYORDER=
